<?xml version="1.0" encoding="UTF-8" standalone="no"?>
<svg width="251px" height="75px" viewBox="0 0 251 75" version="1.1" xmlns="http://www.w3.org/2000/svg" xmlns:xlink="http://www.w3.org/1999/xlink" xmlns:sketch="http://www.bohemiancoding.com/sketch/ns">
    <!-- Generator: Sketch 3.2.2 (9983) - http://www.bohemiancoding.com/sketch -->
    <title>Spotify_Logo_RGB_White</title>
    <desc>Created with Sketch.</desc>
    <defs></defs>
    <g id="Welcome" stroke="none" stroke-width="1" fill="none" fill-rule="evenodd" sketch:type="MSPage">
        <g id="Desktop-HD" sketch:type="MSArtboardGroup" transform="translate(-965.000000, -618.000000)" fill="#E1E1E1">
            <g id="Hero" sketch:type="MSLayerGroup" transform="translate(-50.000000, 0.000000)">
                <g id="spotify" transform="translate(695.000000, 618.000000)" sketch:type="MSShapeGroup">
                    <g id="Spotify_Logo_RGB_White" transform="translate(320.000000, 0.000000)">
                        <path d="M59.7408486,33.5041475 C47.7411666,26.2735214 27.9479593,25.6086881 16.4928284,29.1362738 C14.6533572,29.7023293 12.7080876,28.6486993 12.1506452,26.7822948 C11.5932027,24.9149882 12.6307391,22.9425892 14.4715439,22.3751806 C27.6212287,18.3252902 49.4806182,19.107394 63.2948775,27.4277334 C64.9498681,28.4245323 65.492641,30.5926828 64.5115601,32.2687483 C63.5300347,33.9475201 61.3913939,34.5009465 59.7408486,33.5041475 L59.7408486,33.5041475 Z M58.5734589,44.5522414 C57.7368394,45.9804482 55.9610669,46.4280119 54.6047091,45.551475 C44.6585272,39.1219882 29.4919808,37.2596957 17.7249471,41.0158843 C16.1988789,41.5006287 14.5870715,40.5957414 14.1239033,38.9941792 C13.6638289,37.3893637 14.5247559,35.6976381 16.0477305,35.2096403 C29.490213,30.9203723 46.2005058,32.9978485 57.624141,40.3805576 C58.9804988,41.2589536 59.4074267,43.1272879 58.5734589,44.5522414 L58.5734589,44.5522414 Z M54.6592537,53.9037472 C53.991905,54.983695 52.5658022,55.3225194 51.4751486,54.664132 C42.7490324,49.4027241 31.7661773,48.2142123 18.8318598,51.1292398 C17.5854619,51.4111557 16.3435012,50.6402647 16.0590794,49.4110415 C15.7733264,48.1813805 16.551604,46.9560971 17.8006641,46.6754945 C31.9552003,43.4829287 44.0970412,44.8570497 53.8911815,50.7615235 C54.9831663,51.4194731 55.3270461,52.8268636 54.6592537,53.9037472 L54.6592537,53.9037472 Z M37.5002239,0 C16.7896613,0 0,16.7888659 0,37.4995522 C0,58.2115819 16.7896613,75 37.5002239,75 C58.2112343,75 75,58.2115819 75,37.4995522 C75,16.7888659 58.2112343,0 37.5002239,0 L37.5002239,0 Z" id="Fill-1"></path>
                        <path d="M102.818198,34.4345623 C96.2989362,32.9056126 95.1379225,31.8325098 95.1379225,29.5781072 C95.1379225,27.4474218 97.1776996,26.0142531 100.210313,26.0142531 C103.150045,26.0142531 106.064527,27.102876 109.121037,29.3439757 C109.213467,29.4118206 109.329343,29.4388699 109.443416,29.4211326 C109.557488,29.4042823 109.658034,29.3430888 109.725215,29.2499683 L112.908422,24.8369441 C113.039177,24.6551375 113.003557,24.4050424 112.827263,24.2658051 C109.190021,21.395477 105.094235,20 100.306801,20 C93.2676758,20 88.3508389,24.154504 88.3508389,30.098695 C88.3508389,36.4730141 92.5922589,38.7300773 99.92175,40.4723172 C106.160114,41.8855315 107.212916,43.0690485 107.212916,45.1859876 C107.212916,47.5312936 105.083865,48.9892943 101.657635,48.9892943 C97.8526657,48.9892943 94.7483629,47.7286203 91.2761427,44.7713797 C91.1900248,44.698657 91.0718945,44.6649563 90.9627817,44.6711643 C90.8482584,44.6804764 90.7432036,44.7328012 90.6701612,44.8192702 L87.101002,48.9968326 C86.9513101,49.1702141 86.970247,49.4291778 87.1429337,49.5790574 C91.1832616,53.1260611 96.1514987,55 101.513353,55 C109.098493,55 114,50.9235398 114,44.6148486 C114,39.2830356 110.760884,36.3342202 102.818198,34.4345623" id="Fill-2"></path>
                        <path d="M136,42.5 C136,46.9174208 133.151724,50 129.073325,50 C125.041379,50 122,46.7773234 122,42.5 C122,38.2231117 125.041379,35 129.073325,35 C133.086142,35 136,38.1534981 136,42.5 L136,42.5 Z M130.793613,29 C127.529026,29 124.851365,30.2733817 122.643337,32.8826613 L122.643337,29.9457253 C122.643337,29.7138386 122.453514,29.5249596 122.21937,29.5249596 L116.423519,29.5249596 C116.189375,29.5249596 116,29.7138386 116,29.9457253 L116,62.5792343 C116,62.811121 116.189375,63 116.423519,63 L122.21937,63 C122.453514,63 122.643337,62.811121 122.643337,62.5792343 L122.643337,52.2786761 C124.851813,54.7332168 127.529921,55.932111 130.793613,55.932111 C136.859424,55.932111 143,51.3076783 143,42.4676073 C143,33.6257629 136.859424,29 130.793613,29 L130.793613,29 Z" id="Fill-3"></path>
                        <path d="M158.023082,50 C154.01883,50 151,46.7557573 151,42.4543187 C151,38.1350426 153.91442,35 157.930753,35 C161.960892,35 165,38.2442427 165,42.5487267 C165,46.8675677 162.065734,50 158.023082,50 L158.023082,50 Z M159.024788,29 C151.160829,29 145,34.9611542 145,42.5727619 C145,50.1014033 151.118465,56 158.928341,56 C166.820242,56 173,50.058811 173,42.4764855 C173,34.9194492 166.862606,29 159.024788,29 L159.024788,29 Z" id="Fill-4"></path>
                        <path d="M189.568591,29.0457897 L183.05769,29.0457897 L183.05769,22.4305407 C183.05769,22.1930167 182.864835,22 182.625823,22 L176.709938,22 C176.47047,22 176.275787,22.1930167 176.275787,22.4305407 L176.275787,29.0457897 L173.430952,29.0457897 C173.192398,29.0457897 173,29.2392605 173,29.4767846 L173,34.5301881 C173,34.767258 173.192398,34.9607288 173.430952,34.9607288 L176.275787,34.9607288 L176.275787,48.0368134 C176.275787,53.3209286 178.922283,56 184.141697,56 C186.264012,56 188.024839,55.5644636 189.684212,54.6293546 C189.819027,54.5544187 189.903116,54.4099968 189.903116,54.2564918 L189.903116,49.4442456 C189.903116,49.2957363 189.824968,49.155856 189.697465,49.077741 C189.568591,48.9973552 189.408183,48.9932678 189.27611,49.0582122 C188.136348,49.6281791 187.034517,49.8911359 185.802898,49.8911359 C183.904971,49.8911359 183.05769,49.0350502 183.05769,47.1153291 L183.05769,34.9607288 L189.568591,34.9607288 C189.807602,34.9607288 190,34.767258 190,34.5301881 L190,29.4767846 C190,29.2392605 189.807602,29.0457897 189.568591,29.0457897" id="Fill-5"></path>
                        <path d="M211.790575,29.0124381 L211.790575,28.2099178 C211.790575,25.8490101 212.697084,24.7961789 214.730218,24.7961789 C215.942641,24.7961789 216.916532,25.0366209 218.007219,25.3999755 C218.141533,25.4421426 218.281687,25.4210591 218.390846,25.3407622 C218.503149,25.2604653 218.566488,25.1317211 218.566488,24.995351 L218.566488,20.1012785 C218.566488,19.9146667 218.446099,19.7486899 218.265965,19.6935139 C217.113736,19.3516914 215.639423,19 213.431995,19 C208.059869,19 205.22085,22.0207777 205.22085,27.7326224 L205.22085,28.9617479 L202.426751,28.9617479 C202.192263,28.9617479 202,29.1528455 202,29.3870073 L202,34.4039924 C202,34.6381543 202.192263,34.8292519 202.426751,34.8292519 L205.22085,34.8292519 L205.22085,54.7509532 C205.22085,54.9855637 205.410417,55.1762127 205.644906,55.1762127 L211.460404,55.1762127 C211.695342,55.1762127 211.886706,54.9855637 211.886706,54.7509532 L211.886706,34.8292519 L217.31678,34.8292519 L225.634838,54.7455702 C224.690594,56.8382236 223.762073,57.2545113 222.494397,57.2545113 C221.469745,57.2545113 220.390737,56.9490243 219.287473,56.3461248 C219.183705,56.2891544 219.06107,56.2797341 218.948767,56.3142752 C218.837812,56.3537508 218.744376,56.435842 218.697208,56.5439512 L216.726066,60.862488 C216.632181,61.0665946 216.712141,61.3061395 216.908896,61.4120058 C218.966736,62.5249475 220.824676,63 223.120149,63 C227.414616,63 229.788252,61.0019982 231.88113,55.6279387 L241.97088,29.5920111 C242.021191,29.461024 242.006367,29.3134392 241.925959,29.1968069 C241.845999,29.0819689 241.717075,29.0124381 241.576022,29.0124381 L235.521544,29.0124381 C235.340511,29.0124381 235.177897,29.1272761 235.118601,29.2977387 L228.916331,46.9886222 L222.122899,29.2860755 C222.060907,29.1209959 221.902336,29.0124381 221.725795,29.0124381 L211.790575,29.0124381" id="Fill-6"></path>
                        <path d="M197.616789,29 L192.383211,29 C192.171798,29 192,29.189716 192,29.4226303 L192,54.5778151 C192,54.8107293 192.171798,55 192.383211,55 L197.616789,55 C197.827798,55 198,54.8107293 198,54.5778151 L198,29.4226303 C198,29.189716 197.827798,29 197.616789,29" id="Fill-7"></path>
                        <path d="M196.001292,18 C193.792851,18 192,19.7891222 192,21.9987076 C192,24.2091546 193.792851,26 196.001292,26 C198.209302,26 200,24.2091546 200,21.9987076 C200,19.7891222 198.209302,18 196.001292,18" id="Fill-8"></path>
                        <path d="M247.112831,31 L246,31 L246,33 L247.112831,33 C247.668309,33 248,32.6171901 248,31.9990083 C248,31.3484298 247.668309,31 247.112831,31 L247.112831,31 Z M247.758969,33.4908502 L249,35 L247.953528,35 L246.836263,33.6159155 L245.875993,33.6159155 L245.875993,35 L245,35 L245,31 L247.053937,31 C248.123525,31 248.827595,31.4751647 248.827595,32.2757503 C248.827595,32.9316114 248.391283,33.3323225 247.758969,33.4908502 L247.758969,33.4908502 Z M247.509846,29 C245.511986,29 244,30.5783396 244,32.5110611 C244,34.4425064 245.501284,36 247.489298,36 C249.486729,36 251,34.4225112 251,32.4889389 C251,30.5570682 249.49786,29 247.509846,29 L247.509846,29 Z M246.989491,37 C244.745813,37 243,35.1982376 243,33.0102895 C243,30.8219036 244.768582,29 247.010509,29 C249.253749,29 251,30.8013245 251,32.9875212 C251,35.1754693 249.232731,37 246.989491,37 L246.989491,37 Z" id="Fill-9"></path>
                    </g>
                </g>
            </g>
        </g>
    </g>
</svg>