<?xml version="1.0" encoding="UTF-8" standalone="no"?>
<svg width="43px" height="63px" viewBox="0 0 43 63" version="1.1" xmlns="http://www.w3.org/2000/svg" xmlns:xlink="http://www.w3.org/1999/xlink" xmlns:sketch="http://www.bohemiancoding.com/sketch/ns">
    <!-- Generator: Sketch 3.2.2 (9983) - http://www.bohemiancoding.com/sketch -->
    <title>Group</title>
    <desc>Created with Sketch.</desc>
    <defs></defs>
    <g id="Page-1" stroke="none" stroke-width="1" fill="none" fill-rule="evenodd" sketch:type="MSPage">
        <g id="128" sketch:type="MSArtboardGroup" transform="translate(-43.000000, -37.000000)">
            <g id="Group" sketch:type="MSLayerGroup" transform="translate(43.000000, 38.000000)">
                <path d="M21.5,6.5 L21.5,46.5" id="Line" stroke="#FFFFFF" stroke-width="3" stroke-linecap="square" sketch:type="MSShapeGroup"></path>
                <path d="M21.5750749,46.2600959 C21.5750749,46.2600959 15.6586676,37.4037793 0.42492485,37.4037793 C21.5750744,49.4799092 21.5750751,61.395963 21.5750751,61.395963 L21.5750749,46.2600959 Z" id="Path-2" fill="#FFFFFF" sketch:type="MSShapeGroup"></path>
                <path d="M42.5750749,46.2600959 C42.5750749,46.2600959 36.6586676,37.4037793 21.4249249,37.4037793 C42.5750744,49.4799092 42.5750751,61.395963 42.5750751,61.395963 L42.5750749,46.2600959 Z" id="Path-3" fill="#FFFFFF" sketch:type="MSShapeGroup" transform="translate(32.000000, 49.399871) scale(-1, 1) translate(-32.000000, -49.399871) "></path>
                <g id="Line-+-Line-2-+-Line-3" transform="translate(3.000000, 0.000000)" stroke="#FFFFFF" stroke-width="2" stroke-linecap="square" sketch:type="MSShapeGroup">
                    <path d="M18.5,9.5 L0.5,0.5" id="Line"></path>
                    <path d="M18.5,14.5 L0.5,5.5" id="Line-2"></path>
                    <path d="M18.5,19.5 L0.5,10.5" id="Line-3"></path>
                </g>
                <g id="Line-+-Line-2-+-Line-4" transform="translate(31.500000, 10.000000) scale(-1, 1) translate(-31.500000, -10.000000) translate(22.000000, 0.000000)" stroke="#FFFFFF" stroke-width="2" stroke-linecap="square" sketch:type="MSShapeGroup">
                    <path d="M18.5,9.5 L0.5,0.5" id="Line"></path>
                    <path d="M18.5,14.5 L0.5,5.5" id="Line-2"></path>
                    <path d="M18.5,19.5 L0.5,10.5" id="Line-3"></path>
                </g>
            </g>
        </g>
    </g>
</svg>